<svg width="249" height="97" viewBox="0 0 249 97" fill="none" xmlns="http://www.w3.org/2000/svg">
<path d="M248.362 31.6404C248.362 37.5604 243.562 42.3504 237.642 42.3504C231.722 42.3504 226.932 37.5604 226.932 31.6404C226.932 25.7204 231.732 20.9204 237.642 20.9204C243.552 20.9204 248.362 25.7204 248.362 31.6404Z" fill="#233D78"/>
<path d="M244.122 29.9805C243.952 29.9805 243.772 30.0205 243.612 30.0605C241.302 26.9105 238.102 23.3105 235.802 21.0905C235.352 21.1805 234.902 21.2705 234.472 21.4105C236.702 23.4705 240.232 27.3905 242.682 30.7205C242.472 31.0205 242.332 31.3805 242.332 31.7805C242.332 32.7705 243.132 33.5705 244.122 33.5705C245.112 33.5705 245.912 32.7705 245.912 31.7805C245.912 30.7905 245.112 29.9905 244.122 29.9905V29.9805Z" fill="white"/>
<path d="M240.072 35.0604C239.902 35.0604 239.732 35.0904 239.572 35.1404C237.352 31.0604 233.932 25.7504 231.822 22.6604C231.502 22.8604 231.192 23.0904 230.902 23.3204C233.022 26.4304 236.452 31.7504 238.642 35.8004C238.422 36.0804 238.282 36.4504 238.282 36.8404C238.282 37.8304 239.082 38.6304 240.072 38.6304C241.062 38.6304 241.862 37.8304 241.862 36.8404C241.862 35.8504 241.062 35.0504 240.072 35.0504V35.0604Z" fill="white"/>
<path d="M233.582 34.4305C233.502 34.4305 233.412 34.4404 233.322 34.4504C232.012 31.8604 229.942 28.2204 228.572 25.9604C228.332 26.3304 228.132 26.7104 227.942 27.1204C229.282 29.3704 231.122 32.6204 232.312 34.9704C231.992 35.2904 231.802 35.7304 231.802 36.2204C231.802 37.2004 232.602 38.0104 233.582 38.0104C234.562 38.0104 235.372 37.2104 235.372 36.2204C235.372 35.2304 234.572 34.4305 233.582 34.4305Z" fill="white"/>
<path d="M26.1322 19.9805H45.9622C64.1322 19.8205 73.5022 28.8505 69.2022 49.0805C64.9022 69.3105 51.7022 78.3405 33.5922 78.1805H13.7622L26.1322 19.9805ZM28.3122 68.5105H34.7622C49.5622 68.6705 53.9322 58.3605 55.9022 49.0905C57.8722 39.8105 57.8822 29.5105 43.0222 29.6705H36.5722L28.3122 68.5205V68.5105Z" fill="#233D78"/>
<path d="M75.8322 35.3405L77.9422 25.3805H90.0322L87.9122 35.3405H94.6122L92.8922 43.4005H86.2022L81.7022 64.5605C80.5722 69.8805 81.0622 71.3505 85.2622 71.3505H93.3222L105.612 79.4005H77.9022C68.4722 79.4005 67.5022 74.4805 69.3722 65.7005L74.1122 43.4105H65.9722L67.6822 35.3505H75.8222L75.8322 35.3405Z" fill="#233D78"/>
<path d="M102.412 60.2304C101.242 65.7404 100.902 70.9004 107.432 70.9004C111.842 70.9004 114.392 69.3004 116.402 65.3904H127.842C124.502 75.9104 115.542 79.3804 105.622 79.3804C91.0522 79.3804 86.9422 71.1504 89.9822 56.9104C92.7022 44.1104 102.242 34.2904 115.222 34.2904C123.182 34.2904 129.222 37.0004 131.192 44.4604C131.872 46.8304 131.922 49.3704 131.682 52.0904C131.462 54.7204 130.892 57.4304 130.302 60.2204H102.412V60.2304ZM118.962 51.7604C119.952 47.1004 119.602 42.7804 113.412 42.7804C107.572 42.7804 105.382 47.1004 104.222 51.7604H118.962Z" fill="#233D78"/>
<path d="M158.512 50.4904C159.202 47.0104 158.632 42.7804 153.422 42.7804C147.682 42.7804 145.302 52.9504 144.372 56.2504C143.852 60.1504 141.522 70.9104 147.262 70.9104C152.472 70.9104 155.082 66.0804 155.962 62.6104H169.072C166.182 73.4604 157.742 79.4004 145.352 79.4004C131.972 79.4004 127.782 68.1204 130.322 56.8604C132.862 45.5904 142.132 34.3204 155.512 34.3204C167.002 34.3204 174.132 40.5104 171.802 50.5104H158.512V50.4904Z" fill="#233D78"/>
<path d="M166.622 78.1805L178.992 19.9805H191.002L186.472 40.7105L186.592 40.8705C189.882 37.1605 194.182 34.7505 200.312 34.7505C204.342 34.7505 211.522 37.7305 211.722 43.6205C211.832 46.1205 211.452 48.6905 211.152 50.0605L205.302 78.1805H193.212L198.632 52.0805C199.472 47.7205 199.322 42.8105 193.352 42.8105C189.572 42.8105 185.542 46.1905 184.132 52.0805L178.702 78.1805H166.612H166.622Z" fill="#233D78"/>
<path d="M81.9819 90.2604C81.9819 92.7404 81.2919 94.5104 79.9219 95.5804C78.8019 96.4404 77.1819 96.8704 75.0419 96.8704C72.6719 96.8704 70.9219 96.3704 69.8019 95.3704C68.5619 94.2804 67.9419 92.5204 67.9419 90.1004C67.9419 88.1204 68.4919 86.5704 69.6019 85.4704C70.8019 84.2704 72.6019 83.6704 74.9919 83.6704C77.6219 83.6704 79.4819 84.2504 80.5619 85.4004C81.5119 86.4204 81.9819 88.0404 81.9819 90.2504V90.2604ZM78.7419 90.1804C78.7419 88.9304 78.4419 87.9304 77.8519 87.1904C77.1819 86.3604 76.1919 85.9504 74.8819 85.9504C73.5719 85.9504 72.6219 86.3904 71.9719 87.2804C71.4219 88.0204 71.1519 88.9904 71.1519 90.1804C71.1519 91.5504 71.3719 92.5704 71.8119 93.2304C72.4219 94.1404 73.5419 94.6004 75.1819 94.6004C76.5619 94.6004 77.5319 94.1604 78.0919 93.2704C78.5319 92.5804 78.7519 91.5504 78.7519 90.1904L78.7419 90.1804Z" fill="#8BC441"/>
<path d="M109.202 96.6404H105.162L99.0117 87.2304V96.6404H95.9717V83.9104H100.072L106.122 93.4504V83.9104H109.212V96.6404H109.202Z" fill="#8BC441"/>
<path d="M134.092 96.6404H129.482C128.132 96.6404 127.052 96.4904 126.242 96.1904C125.212 95.8004 124.472 95.1404 124.022 94.1904C123.852 93.8304 123.732 93.4804 123.672 93.1504C123.602 92.8204 123.572 92.4304 123.572 91.9904V83.9204H126.852V91.8804C126.852 92.2404 126.892 92.5604 126.982 92.8304C127.062 93.1004 127.222 93.3704 127.432 93.6404C127.732 94.0304 128.092 94.2804 128.492 94.4004C128.892 94.5204 129.402 94.5804 130.022 94.5804H134.102V96.6404H134.092Z" fill="#8BC441"/>
<path d="M151.582 96.6404H148.172V83.9104H151.582V96.6404Z" fill="#8BC441"/>
<path d="M179.192 96.6404H175.152L169.002 87.2304V96.6404H165.962V83.9104H170.062L176.112 93.4504V83.9104H179.202V96.6404H179.192Z" fill="#8BC441"/>
<path d="M205.132 96.6404H198.922C197.962 96.6404 197.042 96.4204 196.152 95.9904C195.192 95.5204 194.462 94.7704 193.962 93.7404C193.462 92.7104 193.202 91.5804 193.202 90.3404C193.202 89.1004 193.442 88.0104 193.932 87.0104C194.462 85.9304 195.212 85.1404 196.152 84.6504C196.672 84.3804 197.172 84.2004 197.652 84.0904C198.132 83.9804 198.682 83.9304 199.302 83.9304H205.052V86.2104H199.732C199.262 86.2104 198.862 86.2704 198.542 86.4004C198.222 86.5304 197.902 86.7504 197.582 87.0704C197.262 87.3904 197.042 87.7004 196.932 88.0104C196.812 88.3104 196.752 88.6904 196.752 89.1404H205.122V91.4204H196.752C196.752 91.8304 196.802 92.1904 196.912 92.5004C197.022 92.8104 197.222 93.1304 197.512 93.4604C197.802 93.7904 198.092 94.0404 198.402 94.2104C198.712 94.3804 199.082 94.4604 199.512 94.4604H205.122V96.6604L205.132 96.6404Z" fill="#8BC441"/>
<path d="M20.022 49.3704L20.312 48.1404C15.762 47.5504 2.00199 44.8504 1.39199 36.9504C0.981993 31.5604 5.31199 27.0204 10.422 24.1504C37.852 8.70045 101.152 3.81045 130.972 2.76045C167.672 1.49045 209.822 2.08045 225.302 29.7604C226.212 23.7404 231.392 19.1304 237.662 19.1304C239.012 19.1304 240.302 19.3404 241.512 19.7404C225.122 7.93045 208.372 3.50045 182.182 0.880449C169.292 -0.409551 155.012 -0.109552 137.422 0.680448C96.432 2.54045 35.402 8.37045 9.89199 23.1004C2.31199 27.4804 -0.328007 32.0104 0.0319927 37.2304C0.391993 42.4404 6.86199 47.5605 20.022 49.3605V49.3704Z" fill="#8BC441"/>
</svg>
